<svg xmlns="http://www.w3.org/2000/svg" version="1.0" width="2000.000000pt" height="1500.000000pt" viewBox="0 0 2000.000000 1500.000000" preserveAspectRatio="xMidYMid meet">

<g transform="translate(0.000000,1500.000000) scale(0.100000,-0.100000)" fill="#ffffff" stroke="none">
<path d="M15655 12181 c-76 -22 -171 -70 -255 -129 -36 -25 -240 -220 -455 -433 l-390 -388 -235 67 c-129 36 -237 67 -239 69 -2 1 19 28 48 58 61 68 66 101 22 146 -49 48 -72 41 -170 -56 -48 -47 -94 -85 -103 -85 -8 0 -159 43 -334 96 -175 53 -327 99 -336 101 -10 3 -18 8 -18 11 0 4 26 32 57 64 62 63 72 100 37 139 -52 58 -97 43 -208 -69 l-79 -80 -246 83 c-135 46 -281 97 -324 114 -123 49 -247 39 -247 -20 0 -40 72 -92 365 -265 491 -290 805 -489 990 -627 68 -51 385 -361 385 -377 0 -3 -109 -127 -243 -276 -133 -149 -354 -398 -492 -553 -166 -187 -254 -280 -265 -277 -697 196 -652 186 -714 162 -25 -10 -46 -21 -46 -24 0 -4 123 -96 273 -205 150 -108 283 -206 297 -216 l24 -19 -37 -60 c-20 -33 -37 -65 -37 -71 0 -17 35 -13 61 8 13 10 38 26 56 35 l32 16 89 -123 c48 -67 144 -200 212 -295 l123 -174 15 28 c26 50 16 114 -67 433 -44 173 -80 315 -78 316 9 5 313 274 656 580 222 198 416 370 431 382 l27 22 160 -157 c169 -166 209 -215 370 -457 141 -213 243 -378 445 -720 200 -339 226 -378 269 -400 38 -20 54 -9 70 48 14 55 6 100 -43 232 -80 216 -178 520 -173 536 3 9 41 50 85 91 46 44 82 87 86 104 14 53 -45 114 -98 101 -14 -4 -51 -33 -81 -64 -40 -41 -57 -53 -61 -43 -10 30 -115 379 -161 534 l-47 159 86 86 c71 71 86 92 86 117 0 61 -64 108 -113 83 -12 -6 -43 -31 -68 -56 l-46 -44 -68 241 -69 241 386 387 c212 213 406 417 431 453 111 158 163 322 122 385 -13 20 -73 57 -87 53 -2 0 -30 -8 -63 -18z" fill="#ffffff"/>
<path d="M8530 9465 c-10 -12 -10 -18 0 -30 10 -12 37 -15 121 -15 108 0 109 0 109 24 0 29 -28 36 -140 36 -57 0 -81 -4 -90 -15z" fill="#ffffff"/>
<path d="M8335 9431 c-62 -22 -118 -51 -127 -64 -10 -16 3 -37 23 -37 11 0 36 8 57 19 20 10 61 26 90 36 45 14 53 20 50 38 -4 29 -31 31 -93 8z" fill="#ffffff"/>
<path d="M8860 9425 c-18 -21 -8 -30 86 -72 94 -42 129 -47 129 -18 0 15 -19 29 -75 57 -98 48 -123 54 -140 33z" fill="#ffffff"/>
<path d="M8073 9258 c-82 -87 -118 -168 -74 -168 11 0 39 27 72 72 30 39 58 77 63 83 12 16 1 45 -17 45 -7 0 -27 -15 -44 -32z" fill="#ffffff"/>
<path d="M9157 9273 c-18 -17 -1 -44 67 -106 77 -69 99 -79 111 -49 5 13 -12 35 -70 90 -73 68 -93 81 -108 65z" fill="#ffffff"/>
<path d="M9387 9033 c-14 -14 -5 -35 49 -115 59 -87 73 -98 93 -74 15 18 3 44 -63 134 -43 58 -63 72 -79 55z" fill="#ffffff"/>
<path d="M7921 8997 c-18 -22 -42 -134 -39 -179 2 -35 7 -43 23 -43 15 0 21 10 28 45 4 25 15 71 23 104 11 44 11 62 3 72 -14 17 -24 18 -38 1z" fill="#ffffff"/>
<path d="M12551 8938 c-35 -47 -36 -72 -6 -75 24 -3 90 80 81 103 -10 27 -44 14 -75 -28z" fill="#ffffff"/>
<path d="M7330 8873 c-65 -10 -71 -13 -68 -36 3 -21 6 -22 112 -20 112 3 131 8 121 35 -9 23 -89 33 -165 21z" fill="#ffffff"/>
<path d="M7597 8833 c-15 -14 -6 -42 16 -48 12 -4 54 -23 94 -42 71 -35 103 -38 103 -8 0 18 -61 58 -130 85 -54 21 -73 24 -83 13z" fill="#ffffff"/>
<path d="M7074 8792 c-109 -61 -131 -85 -100 -111 11 -9 28 -3 83 31 37 24 77 48 88 54 26 15 26 48 0 52 -11 1 -43 -11 -71 -26z" fill="#ffffff"/>
<path d="M12447 8777 c-23 -19 -99 -165 -95 -185 2 -9 12 -17 23 -17 14 0 33 24 67 85 26 47 48 92 48 101 0 22 -24 31 -43 16z" fill="#ffffff"/>
<path d="M9558 8738 c-3 -7 14 -56 37 -108 32 -73 46 -95 61 -95 32 0 28 39 -15 130 -30 65 -44 85 -60 85 -10 0 -21 -6 -23 -12z" fill="#ffffff"/>
<path d="M7888 8669 c-25 -14 -22 -34 10 -85 27 -43 58 -57 68 -30 8 21 -29 120 -46 123 -8 2 -23 -2 -32 -8z" fill="#ffffff"/>
<path d="M6811 8543 c-52 -79 -63 -116 -36 -127 18 -7 22 -2 86 97 51 78 56 107 20 107 -14 0 -36 -24 -70 -77z" fill="#ffffff"/>
<path d="M12244 8393 c-38 -81 -43 -98 -31 -110 23 -24 41 -5 85 89 45 96 47 118 12 118 -17 0 -30 -20 -66 -97z" fill="#ffffff"/>
<path d="M9684 8425 c-4 -8 4 -59 17 -113 20 -82 27 -97 44 -97 13 0 21 8 23 24 4 24 -24 153 -40 184 -11 21 -37 22 -44 2z" fill="#ffffff"/>
<path d="M6701 8307 c-20 -51 -43 -189 -33 -199 21 -21 46 -3 55 37 4 22 14 66 22 99 7 32 11 65 8 72 -8 22 -43 16 -52 -9z" fill="#ffffff"/>
<path d="M12105 8100 c-49 -98 -53 -115 -29 -124 25 -10 33 0 79 96 45 91 48 118 14 118 -14 0 -31 -24 -64 -90z" fill="#ffffff"/>
<path d="M9740 8006 c0 -109 12 -142 45 -130 12 5 15 27 15 104 0 115 -4 130 -36 130 -24 0 -24 -1 -24 -104z" fill="#ffffff"/>
<path d="M6657 7987 c-7 -18 8 -192 18 -207 9 -14 45 -13 46 3 1 14 -1 45 -10 142 -5 61 -9 70 -27 73 -12 2 -24 -3 -27 -11z" fill="#ffffff"/>
<path d="M11974 7858 c-14 -24 -40 -64 -56 -91 -32 -50 -31 -77 1 -77 24 0 123 154 119 185 -5 37 -35 29 -64 -17z" fill="#ffffff"/>
<path d="M9745 7771 c-3 -6 -12 -54 -21 -108 -12 -85 -12 -99 0 -112 26 -25 43 3 56 92 7 45 11 93 9 107 -4 26 -32 39 -44 21z" fill="#ffffff"/>
<path d="M6713 7673 c-19 -7 -15 -49 15 -138 19 -57 32 -81 46 -83 34 -7 38 12 17 74 -10 32 -24 78 -30 100 -11 42 -25 55 -48 47z" fill="#ffffff"/>
<path d="M11757 7545 c-69 -90 -73 -98 -51 -116 15 -12 21 -8 58 32 61 68 99 127 92 144 -12 32 -42 13 -99 -60z" fill="#ffffff"/>
<path d="M9681 7428 c-21 -53 -57 -185 -53 -196 8 -25 43 -12 57 22 31 73 53 174 42 185 -18 18 -37 13 -46 -11z" fill="#ffffff"/>
<path d="M6814 7346 c-6 -15 10 -50 63 -138 35 -60 51 -69 73 -43 10 12 8 22 -13 53 -13 21 -36 61 -51 90 -27 52 -60 70 -72 38z" fill="#ffffff"/>
<path d="M11537 7292 c-46 -46 -68 -76 -65 -88 7 -38 37 -25 105 46 70 74 83 103 48 108 -14 2 -42 -20 -88 -66z" fill="#ffffff"/>
<path d="M9560 7083 c-54 -121 -62 -144 -56 -158 7 -18 30 -20 44 -2 20 24 83 181 78 194 -3 7 -14 13 -25 13 -14 0 -26 -14 -41 -47z" fill="#ffffff"/>
<path d="M11297 7064 c-77 -65 -92 -95 -54 -102 26 -5 168 118 165 143 -5 36 -33 26 -111 -41z" fill="#ffffff"/>
<path d="M7001 7080 c-23 -14 -4 -52 62 -124 46 -51 68 -68 80 -63 29 11 19 37 -44 111 -70 80 -80 88 -98 76z" fill="#ffffff"/>
<path d="M11033 6863 c-82 -56 -101 -84 -66 -97 11 -5 45 12 101 50 93 65 94 66 86 88 -10 27 -35 18 -121 -41z" fill="#ffffff"/>
<path d="M7233 6843 c-31 -11 -10 -45 63 -103 75 -60 107 -72 117 -46 7 19 -6 33 -83 92 -79 61 -82 62 -97 57z" fill="#ffffff"/>
<path d="M9430 6813 c-102 -171 -109 -193 -66 -193 29 0 131 176 114 197 -15 18 -36 16 -48 -4z" fill="#ffffff"/>
<path d="M10758 6692 c-93 -50 -110 -69 -82 -89 15 -11 29 -7 93 28 109 59 135 88 95 103 -19 7 -4 13 -106 -42z" fill="#ffffff"/>
<path d="M7489 6634 c-12 -15 -10 -20 14 -38 16 -12 60 -38 99 -58 54 -29 74 -35 85 -27 7 6 13 17 13 24 0 12 -169 115 -189 115 -5 0 -15 -7 -22 -16z" fill="#ffffff"/>
<path d="M10454 6540 c-90 -42 -104 -55 -81 -77 13 -13 24 -10 102 23 95 41 117 57 109 79 -9 23 -42 17 -130 -25z" fill="#ffffff"/>
<path d="M9207 6459 c-58 -81 -67 -111 -35 -117 12 -2 37 23 78 80 62 84 70 111 35 116 -15 2 -35 -17 -78 -79z" fill="#ffffff"/>
<path d="M7791 6490 c-7 -4 -11 -16 -9 -26 4 -22 181 -99 205 -90 30 12 10 48 -37 66 -25 9 -68 26 -96 38 -28 11 -56 17 -63 12z" fill="#ffffff"/>
<path d="M10155 6425 c-92 -33 -120 -54 -97 -77 18 -18 216 49 220 74 6 34 -30 35 -123 3z" fill="#ffffff"/>
<path d="M8097 6373 c-4 -3 -7 -14 -7 -23 0 -20 24 -31 130 -60 64 -17 76 -18 89 -6 25 26 4 41 -95 69 -109 30 -108 30 -117 20z" fill="#ffffff"/>
<path d="M9842 6335 c-99 -24 -118 -34 -109 -59 8 -21 44 -19 142 7 66 18 81 26 83 43 5 32 -13 33 -116 9z" fill="#ffffff"/>
<path d="M8422 6288 c-14 -14 -16 -35 -3 -42 4 -3 52 -13 106 -21 89 -15 100 -15 114 -1 25 25 -3 42 -94 55 -44 7 -87 14 -95 17 -9 2 -21 -1 -28 -8z" fill="#ffffff"/>
<path d="M9565 6280 c-22 -4 -65 -11 -97 -14 -59 -8 -81 -28 -56 -52 11 -11 31 -11 113 2 107 16 126 25 109 51 -13 21 -20 22 -69 13z" fill="#ffffff"/>
<path d="M9073 6272 c-29 -20 -134 -155 -131 -170 6 -32 44 -19 85 31 l40 48 113 4 c119 5 143 13 124 43 -10 14 -25 16 -103 13 -76 -3 -91 -1 -91 12 0 17 -22 28 -37 19z" fill="#ffffff"/>
<path d="M8744 6235 c-12 -30 18 -42 117 -49 80 -5 99 -4 109 9 24 29 -7 42 -118 50 -90 6 -103 5 -108 -10z" fill="#ffffff"/>
<path d="M8772 5946 c-49 -50 -70 -80 -66 -90 11 -29 40 -16 113 51 52 48 71 72 69 87 -6 44 -41 29 -116 -48z" fill="#ffffff"/>
<path d="M8527 5724 c-78 -67 -93 -96 -52 -102 27 -3 177 124 173 146 -7 36 -43 22 -121 -44z" fill="#ffffff"/>
<path d="M8262 5520 c-83 -60 -101 -90 -59 -98 25 -5 189 116 185 137 -6 33 -44 22 -126 -39z" fill="#ffffff"/>
<path d="M8005 5350 c-93 -60 -109 -75 -102 -93 10 -26 30 -21 110 28 84 51 102 68 93 90 -9 23 -36 17 -101 -25z" fill="#ffffff"/>
<path d="M7703 5168 c-66 -36 -93 -57 -93 -70 0 -34 28 -30 107 13 103 55 115 66 102 90 -5 11 -13 19 -17 19 -4 0 -49 -23 -99 -52z" fill="#ffffff"/>
<path d="M7408 5012 c-70 -35 -93 -52 -93 -67 0 -33 29 -28 124 20 66 33 91 50 91 64 0 35 -29 31 -122 -17z" fill="#ffffff"/>
<path d="M7112 4871 c-95 -44 -107 -53 -98 -77 8 -22 40 -15 139 31 66 31 78 40 75 58 -4 32 -24 30 -116 -12z" fill="#ffffff"/>
<path d="M6790 4731 c-83 -36 -104 -57 -78 -79 10 -8 37 -1 107 28 105 44 114 50 105 73 -9 25 -39 20 -134 -22z" fill="#ffffff"/>
<path d="M6475 4606 c-53 -21 -81 -38 -83 -50 -8 -39 15 -39 111 -2 96 37 124 56 112 76 -11 17 -56 9 -140 -24z" fill="#ffffff"/>
<path d="M6178 4497 c-98 -36 -112 -46 -102 -70 8 -23 25 -21 129 17 80 28 90 35 90 56 0 34 -17 34 -117 -3z" fill="#ffffff"/>
<path d="M5855 4389 c-90 -30 -107 -41 -98 -66 8 -19 38 -16 128 13 94 31 114 46 95 68 -16 20 -17 20 -125 -15z" fill="#ffffff"/>
<path d="M4435 4391 c-99 -27 -179 -91 -222 -180 -22 -46 -27 -70 -27 -136 -1 -71 3 -88 32 -147 33 -68 80 -116 152 -154 27 -15 57 -19 135 -19 85 0 107 3 145 23 113 59 180 167 180 289 0 137 -67 245 -186 300 -60 27 -156 38 -209 24z m163 -97 c47 -19 98 -68 125 -119 27 -50 29 -154 4 -201 -60 -115 -171 -165 -289 -130 -61 17 -127 78 -153 138 -31 75 -15 172 40 244 55 72 186 105 273 68z" fill="#ffffff"/>
<path d="M4433 4190 c-41 -24 -63 -67 -63 -120 0 -54 26 -97 72 -121 152 -78 281 118 152 231 -28 24 -44 30 -82 30 -29 0 -59 -8 -79 -20z" fill="#ffffff"/>
<path d="M5538 4291 c-101 -30 -120 -43 -97 -67 14 -14 25 -13 110 11 106 31 130 45 109 69 -16 20 -16 20 -122 -13z" fill="#ffffff"/>
<path d="M5210 4202 c-78 -23 -96 -31 -98 -48 -5 -34 20 -35 125 -6 90 25 98 29 98 52 0 33 -13 33 -125 2z" fill="#ffffff"/>
<path d="M4945 4135 c-5 -2 -22 -6 -37 -9 -19 -4 -28 -13 -28 -27 0 -28 24 -34 83 -18 41 11 52 19 52 34 0 15 -7 20 -30 22 -16 1 -34 0 -40 -2z" fill="#ffffff"/>
</g>
</svg>