<svg xmlns="http://www.w3.org/2000/svg" version="1.0" width="225.000000pt" height="225.000000pt" viewBox="0 0 225.000000 225.000000" preserveAspectRatio="xMidYMid meet">

<g transform="translate(0.000000,225.000000) scale(0.100000,-0.100000)" fill="#9f86c0" stroke="none">
<path d="M104 2116 c-18 -13 -17 -17 10 -92 63 -174 122 -376 211 -724 51 -201 111 -428 133 -505 54 -187 107 -400 127 -510 26 -143 27 -147 59 -158 26 -9 45 2 247 138 l219 147 117 -62 c64 -34 155 -87 202 -116 157 -100 230 -127 266 -101 19 15 20 26 17 379 l-3 363 53 34 c108 70 275 201 334 262 58 61 61 66 60 114 -1 49 -2 50 -46 72 -25 12 -211 103 -415 202 -441 214 -553 259 -895 357 -52 15 -160 51 -240 80 -146 53 -348 116 -406 127 -19 4 -39 1 -50 -7z m221 -125 c50 -22 146 -60 215 -84 69 -25 176 -63 238 -86 62 -23 128 -41 146 -41 80 0 338 -106 707 -291 156 -78 317 -156 356 -174 l73 -32 -73 -70 c-67 -65 -295 -243 -311 -243 -4 0 -116 89 -249 198 -267 219 -380 307 -507 398 -105 76 -458 304 -582 377 -51 30 -102 65 -113 78 -23 26 -26 27 100 -30z m231 -307 c77 -51 214 -148 305 -216 149 -111 721 -569 760 -607 12 -12 14 -24 8 -51 -5 -19 -9 -128 -9 -242 0 -115 -3 -208 -7 -208 -11 1 -170 326 -184 376 -10 36 -62 92 -363 390 -194 192 -426 420 -516 507 -91 87 -158 155 -150 151 8 -4 78 -49 156 -100z m29 -229 c83 -78 279 -272 438 -432 l288 -290 -84 -80 c-46 -43 -126 -113 -178 -154 -94 -76 -345 -259 -354 -259 -3 0 -5 10 -5 21 0 44 -62 296 -135 550 -42 145 -103 365 -136 489 -33 124 -73 268 -90 321 -16 53 -29 98 -29 101 0 2 31 -25 68 -61 37 -36 135 -129 217 -206z m815 -855 c8 -19 42 -95 77 -169 35 -74 63 -135 63 -137 0 -2 -77 35 -171 81 -94 46 -176 86 -182 88 -7 2 1 15 18 28 17 13 61 53 100 91 38 37 73 64 76 60 3 -4 12 -23 19 -42z" fill="#9f86c0"/>
</g>
</svg>